# xmcd CD database file
#
# Track frame offsets:
#	150
#	12860
#	24585
#	37808
#	53360
#	70213
#	87063
#	102918
#	117385
#	132080
#	144715
#	166508
#	182578
#	196805
#	211253
#	230333
#
# Disc length: 3235 seconds
#
# Revision: 0
# Processed by: cddbd v1.5.2PL0 Copyright (c) Steve Scherf et al.
# Submitted via: CDex 1.70beta2
#
DISCID=c20ca110
DTITLE=決定版 全国盆踊り集 - 決定版 全国盆踊り集
DYEAR=1999
DGENRE=Country
TTITLE0=佐々木基春 - 北海盆唄
TTITLE1=小野花子・他 - 秋田音頭
TTITLE2=井上一子 - 盛岡さんさ踊り
TTITLE3=都はるみ - 花笠音頭
TTITLE4=原田直之 - 相馬盆唄
TTITLE5=小沢千月 - 秩父音頭
TTITLE6=中村晴悦 - 越後おわら節
TTITLE7=村田文蔵 - 佐渡おけさ
TTITLE8=原田直之 - 東京音頭
TTITLE9=山崎定道 - 郡上節～かわさき～
TTITLE10=小松みつ子 - 河内音頭（せんせんづくし）
TTITLE11=入村ゆき - 阿波踊り
TTITLE12=斉藤京子 - よさこい節
TTITLE13=赤坂小梅 - 炭坑節
TTITLE14=藤堂輝明 - ぼけない音頭
TTITLE15=石川進 曽我町子 - オバＱ音頭
EXTD=YEAR: 1999
EXTT0=
EXTT1=
EXTT2=
EXTT3=
EXTT4=
EXTT5=
EXTT6=
EXTT7=
EXTT8=
EXTT9=
EXTT10=
EXTT11=
EXTT12=
EXTT13=
EXTT14=
EXTT15=
PLAYORDER=
